# xmcd
#
# Track frame offsets:
#	150
#	15938
#	31079
#	45179
#	61879
#	79671
#	96823
#	112606
#	128600
#	143234
#	158691
#	173566
#	191000
#
# Disc length: 2788 seconds
#
# Revision: 1
# Processed by: cddbd v1.5.2PL0 Copyright (c) Steve Scherf et al.
# Submitted via: audiograbber 1.83.01
#
DISCID=870ae20d
DTITLE=Variuos Artists - CDX 563
DYEAR=2013
DGENRE=Country
TTITLE0=Jake Owen - Anywhere With You (Single Edi)t
TTITLE1=Lady Antebellum - Downtown
TTITLE2=Kristen Kelly - He Loves To Make Me Cry (Radio Edit)
TTITLE3=Tyler Farr  - Redneck Crazy
TTITLE4=Jaida Dreyer - Half Broke Horses
TTITLE5=Lonestar - Maybe Someday
TTITLE6=Tyler Barham - 17 and Young
TTITLE7=Jessta James - Back In The Day
TTITLE8=Julie Ingram - Door Bell Party
TTITLE9=Hannah Bethel - No Where Left To Roam
TTITLE10=Jesse Taylor - Out Here In The Country
TTITLE11=Mickie James - Somebody's Gonna Pay
TTITLE12=Zach Dubois - Southern Belle
EXTD=
EXTT0=
EXTT1=
EXTT2=
EXTT3=
EXTT4=
EXTT5=
EXTT6=
EXTT7=
EXTT8=
EXTT9=
EXTT10=
EXTT11=
EXTT12=
PLAYORDER=
